<?xml version="1.0" standalone="no"?>
<!DOCTYPE svg PUBLIC "-//W3C//DTD SVG 20010904//EN"
 "http://www.w3.org/TR/2001/REC-SVG-20010904/DTD/svg10.dtd">
<svg version="1.0" xmlns="http://www.w3.org/2000/svg"
 width="256.000000pt" height="256.000000pt" viewBox="0 0 256.000000 256.000000"
 preserveAspectRatio="xMidYMid meet">

<g transform="translate(0.000000,256.000000) scale(0.100000,-0.100000)"
fill="#000000" stroke="none">
<path d="M1090 2405 c-604 -106 -1017 -664 -940 -1271 46 -374 282 -704 625
-878 254 -128 569 -152 853 -64 231 70 471 253 610 463 186 282 234 670 122
995 -110 318 -350 567 -672 696 -159 64 -422 90 -598 59z m346 -6 c203 -28
369 -101 506 -220 193 -170 297 -310 373 -506 86 -224 93 -503 18 -733 -124
-381 -454 -671 -850 -746 -113 -21 -302 -22 -414 0 -150 28 -256 71 -440 177
-140 81 -295 258 -369 423 -42 93 -45 119 -5 44 19 -38 37 -68 40 -68 2 0 -9
29 -26 65 -58 128 -80 242 -89 447 -9 243 -1 297 76 466 77 169 230 354 374
452 72 49 226 124 239 116 5 -3 34 3 64 13 70 24 189 48 292 57 63 6 74 9 50
15 -51 12 73 11 161 -2z"/>
<path d="M1165 2329 c-423 -43 -782 -343 -899 -751 -107 -373 -7 -767 261
-1036 139 -139 369 -246 618 -288 109 -19 110 -19 60 -26 -27 -3 20 -5 105 -3
118 2 173 8 232 23 201 54 333 128 472 266 95 93 96 94 11 14 -80 -74 -242
-188 -269 -188 -6 0 26 23 69 52 154 101 308 273 388 433 28 57 64 159 101
293 52 187 23 416 -81 630 -47 95 -62 104 -19 10 51 -110 53 -135 3 -38 -68
135 -122 207 -236 319 -152 149 -256 212 -433 261 -65 18 -244 42 -288 38 -8
0 -51 -4 -95 -9z m305 -45 c244 -46 454 -173 611 -372 75 -93 123 -180 164
-295 46 -130 59 -220 52 -384 -10 -266 -99 -472 -286 -666 -122 -126 -247
-205 -413 -261 -104 -35 -182 -46 -321 -46 -275 0 -510 96 -708 290 -128 125
-204 245 -260 408 -64 187 -64 458 -1 642 123 355 427 620 785 685 101 18 279
18 377 -1z"/>
<path d="M725 2078 c-233 -163 -393 -442 -412 -720 l-6 -88 306 0 c339 0 329
2 342 -67 11 -58 42 -112 96 -163 l49 -47 -155 -269 c-85 -148 -155 -272 -155
-275 0 -26 189 -103 310 -125 112 -21 325 -15 425 13 90 25 220 80 236 99 10
12 10 21 -3 42 -37 66 -137 238 -209 362 -43 74 -79 139 -79 143 0 4 24 31 53
60 55 55 83 102 102 177 l11 45 307 3 307 2 0 61 c0 193 -102 439 -249 601
-67 72 -211 188 -236 188 -7 0 -66 -91 -130 -202 -65 -112 -133 -228 -151
-259 l-34 -56 -52 18 c-70 24 -145 24 -220 -2 -73 -24 -63 -31 -134 96 -141
252 -231 400 -244 402 -8 1 -42 -17 -75 -39z m77 19 c-8 -9 28 -79 136 -266
81 -140 151 -253 156 -252 5 2 12 -3 17 -10 6 -10 12 -10 31 -1 16 9 17 11 3
7 -11 -3 -16 -2 -11 2 4 4 20 9 34 10 15 1 53 5 85 9 50 6 56 8 45 22 -12 13
-8 14 30 8 65 -10 124 -36 118 -52 -4 -9 2 -14 17 -13 12 0 16 3 10 6 -7 2
-13 8 -13 13 0 7 54 104 145 260 17 30 55 96 84 145 51 88 91 140 91 119 0 -6
35 -41 79 -77 195 -165 321 -389 351 -628 5 -46 10 -87 10 -91 0 -5 -137 -8
-305 -8 -291 0 -305 -1 -315 -19 -5 -11 -10 -30 -10 -43 0 -47 -47 -123 -110
-180 l-62 -57 155 -268 c119 -205 152 -271 144 -280 -17 -17 -154 -70 -233
-90 -50 -12 -110 -17 -214 -16 -159 0 -235 15 -371 72 -40 17 -76 28 -81 25
-28 -17 -5 26 249 466 24 41 50 80 58 86 8 6 15 15 15 19 0 4 -7 2 -15 -5 -12
-10 -15 -10 -15 1 0 8 -15 21 -33 29 -17 8 -47 37 -64 64 -37 54 -44 84 -11
46 17 -20 20 -21 13 -5 -26 67 -34 93 -35 119 0 24 -2 27 -15 16 -12 -10 -15
-10 -15 4 0 14 -30 16 -303 16 -222 0 -306 -3 -315 -12 -7 -7 -12 -9 -12 -4 0
4 7 15 16 23 13 14 15 29 9 89 -5 58 -2 88 14 149 40 145 140 314 242 410 66
62 162 135 177 135 7 0 12 5 12 10 0 6 5 10 11 10 8 0 8 -4 1 -13z"/>
<path d="M1755 2059 c-4 -6 -5 -12 -2 -15 2 -3 7 2 10 11 7 17 1 20 -8 4z"/>
<path d="M689 2006 c-73 -61 -114 -104 -154 -161 l-27 -40 33 40 c45 55 136
144 184 183 22 17 38 31 34 32 -3 0 -34 -24 -70 -54z"/>
<path d="M1665 1900 c-9 -16 -13 -30 -11 -30 3 0 12 14 21 30 9 17 13 30 11
30 -3 0 -12 -13 -21 -30z"/>
<path d="M1637 1853 c-2 -5 -17 -30 -32 -58 -16 -27 -24 -45 -18 -40 14 14 66
105 60 105 -3 0 -8 -3 -10 -7z"/>
<path d="M470 1750 c-6 -11 -8 -20 -6 -20 3 0 10 9 16 20 6 11 8 20 6 20 -3 0
-10 -9 -16 -20z"/>
<path d="M1182 1489 c-119 -59 -153 -225 -67 -326 28 -33 43 -41 99 -53 64
-13 79 -23 54 -33 -26 -11 56 -7 93 4 43 13 104 60 120 92 6 12 -1 7 -16 -11
-15 -18 -41 -40 -58 -49 -30 -15 -29 -13 15 36 26 28 52 67 58 86 6 19 16 35
21 35 12 0 11 46 -1 92 -13 44 -29 59 -23 20 4 -21 -6 -11 -40 39 -32 46 -56
70 -78 78 -52 18 -129 13 -177 -10z m186 -30 c29 -15 54 -37 74 -68 26 -41 29
-53 26 -108 -3 -51 -9 -69 -34 -100 -17 -21 -46 -46 -65 -55 -76 -39 -188 -9
-236 63 -64 97 -27 219 82 270 53 24 99 24 153 -2z"/>
<path d="M574 2128 l-19 -23 23 19 c21 18 27 26 19 26 -2 0 -12 -10 -23 -22z"/>
<path d="M486 2049 c-32 -34 -74 -84 -95 -113 -42 -57 -96 -146 -88 -146 3 0
18 21 33 48 36 62 106 154 168 220 27 28 46 52 44 52 -3 0 -31 -28 -62 -61z"/>
<path d="M2119 633 c-13 -16 -12 -17 4 -4 9 7 17 15 17 17 0 8 -8 3 -21 -13z"/>
<path d="M1113 233 c9 -2 23 -2 30 0 6 3 -1 5 -18 5 -16 0 -22 -2 -12 -5z"/>
</g>
</svg>
